<svg width="33" height="29" viewBox="0 0 33 29" fill="none" xmlns="http://www.w3.org/2000/svg">
<path d="M16.2436 7.59621C14.7531 8.43737 12.6466 8.46264 11.1376 7.65815C10.0953 7.10241 8.9154 6.78904 7.66565 6.78904C3.43204 6.78904 0 10.3846 0 14.82C0 19.2554 3.43204 22.8509 7.66565 22.8509C8.97908 22.8509 10.2154 22.5048 11.296 21.895C12.7864 21.0538 14.893 21.0286 16.4019 21.8331C17.4443 22.3888 18.6242 28.5 19.8739 28.5C24.1076 28.5 33 19.1066 33 14.6713C33 10.2358 24.1076 0.5 19.8739 0.5C18.5605 0.5 17.3242 6.98636 16.2436 7.59621Z" fill="#FC6D3E"/>
</svg>
